<?xml version="1.0" encoding="UTF-8" standalone="no"?>
<svg
   xmlns:dc="http://purl.org/dc/elements/1.1/"
   xmlns:cc="http://creativecommons.org/ns#"
   xmlns:rdf="http://www.w3.org/1999/02/22-rdf-syntax-ns#"
   xmlns:svg="http://www.w3.org/2000/svg"
   xmlns="http://www.w3.org/2000/svg"
   version="1.1"
   id="Capa_1"
   x="0px"
   y="0px"
   viewBox="0 0 60 60"
   style="enable-background:new 0 0 60 60;"
   xml:space="preserve"><metadata
     id="metadata51"><rdf:RDF><cc:Work
         rdf:about=""><dc:format>image/svg+xml</dc:format><dc:type
           rdf:resource="http://purl.org/dc/dcmitype/StillImage" /><dc:title></dc:title></cc:Work></rdf:RDF></metadata><defs
     id="defs49" /><path
     style="fill:#000000;fill-opacity:1"
     d="m 47.024,31.5 0,-8.994 C 47.067,15.649 42.456,11.101 38.494,9.29 37.359,8.771 36.189,8.371 35,8.074 L 35,7.5 c 0,-2.757 -2.243,-5 -5,-5 -2.757,0 -5,2.243 -5,5 l 0,0.661 C 23.929,8.45 22.876,8.827 21.854,9.299 17.476,11.317 13.04,16.181 13,22.5 l 0,9 c 0,6.388 -2.256,11.869 -6.705,16.291 -0.265,0.264 -0.361,0.653 -0.249,1.01 0.112,0.357 0.415,0.621 0.784,0.685 l 9.491,1.639 c 1.768,0.305 3.396,0.555 4.945,0.761 1.745,3.42 5.172,5.615 8.916,5.615 3.745,0 7.173,-2.196 8.917,-5.618 1.543,-0.205 3.163,-0.454 4.921,-0.758 l 9.49,-1.639 c 0.369,-0.063 0.671,-0.328 0.784,-0.685 0.113,-0.356 0.017,-0.746 -0.249,-1.01 C 49.387,43.16 47.024,37.679 47.024,31.5 Z"
     id="path4191" /><path
     style="fill:#ffffff;fill-opacity:1"
     d="m 27,7.5 c 0,-1.654 1.346,-3 3,-3 1.654,0 3,1.346 3,3 l 0,0.182 C 31.007,7.396 28.985,7.408 27,7.729 L 27,7.5 Z"
     id="path4189" /><path
     style="fill:#000000;fill-opacity:1"
     d="m 30.183,55.5 c -2.532,0 -4.898,-1.258 -6.417,-3.315 2.235,0.23 4.321,0.346 6.406,0.346 2.093,0 4.186,-0.116 6.43,-0.349 -1.52,2.059 -3.887,3.318 -6.419,3.318 z"
     id="path4187" /><path
     style="fill:#ffffff;fill-opacity:1"
     d="m 43.681,49.153 c -1.919,0.331 -3.678,0.6 -5.34,0.812 -0.002,0 -0.004,0 -0.007,0 -0.733,0.093 -1.445,0.174 -2.142,0.244 -0.006,0 -0.011,10e-4 -0.017,10e-4 -0.639,0.064 -1.263,0.116 -1.881,0.16 -0.116,0.008 -0.232,0.016 -0.347,0.023 -0.535,0.035 -1.064,0.063 -1.59,0.083 -0.107,0.004 -0.215,0.01 -0.322,0.013 -1.244,0.042 -2.471,0.042 -3.714,0.001 -0.111,-0.004 -0.223,-0.01 -0.334,-0.014 -0.517,-0.021 -1.038,-0.047 -1.565,-0.082 -0.125,-0.008 -0.25,-0.016 -0.376,-0.025 -0.599,-0.043 -1.205,-0.093 -1.824,-0.155 -0.023,-0.002 -0.045,-0.004 -0.068,-0.006 -0.692,-0.069 -1.398,-0.15 -2.124,-0.242 -0.003,0 -0.006,0 -0.009,0 -1.668,-0.211 -3.434,-0.482 -5.361,-0.814 L 9,47.83 c 3.983,-4.554 6,-10.038 6,-16.33 l 0,-8.994 c 0.034,-5.435 3.888,-9.637 7.691,-11.391 1.131,-0.521 2.304,-0.91 3.497,-1.183 0.01,-0.002 0.021,-0.001 0.031,-0.003 2.465,-0.554 5.087,-0.579 7.58,-0.068 0.013,0.003 0.026,-0.003 0.039,-0.001 1.304,0.272 2.588,0.684 3.825,1.249 3.689,1.687 7.396,5.861 7.361,11.392 l 0,9 c 0,6.033 2.175,11.643 6.313,16.331 l -7.656,1.321 z"
     id="path5" /><path
     id="path7"
     d="m 36.417,13.838 c -3.875,-1.771 -8.62,-1.773 -12.469,0.002 -2.195,1.012 -5.918,3.973 -5.948,8.654 -0.003,0.552 0.441,1.002 0.994,1.006 0.002,0 0.004,0 0.006,0 0.549,0 0.997,-0.443 1,-0.994 0.023,-3.677 3.019,-6.035 4.785,-6.85 3.33,-1.537 7.446,-1.533 10.799,0 0.503,0.23 1.096,0.009 1.326,-0.493 0.23,-0.503 0.008,-1.096 -0.493,-1.325 z" /><g
     id="g17" /><g
     id="g19" /><g
     id="g21" /><g
     id="g23" /><g
     id="g25" /><g
     id="g27" /><g
     id="g29" /><g
     id="g31" /><g
     id="g33" /><g
     id="g35" /><g
     id="g37" /><g
     id="g39" /><g
     id="g41" /><g
     id="g43" /><g
     id="g45" /></svg>