<?xml version="1.0" encoding="UTF-8" standalone="no"?>
<svg
   xmlns:dc="http://purl.org/dc/elements/1.1/"
   xmlns:cc="http://creativecommons.org/ns#"
   xmlns:rdf="http://www.w3.org/1999/02/22-rdf-syntax-ns#"
   xmlns:svg="http://www.w3.org/2000/svg"
   xmlns="http://www.w3.org/2000/svg"
   height="50"
   width="50"
   xml:space="preserve"
   viewBox="0 0 50 50"
   y="0px"
   x="0px"
   id="Capa_1"
   version="1.1"><metadata
     id="metadata41"><rdf:RDF><cc:Work
         rdf:about=""><dc:format>image/svg+xml</dc:format><dc:type
           rdf:resource="http://purl.org/dc/dcmitype/StillImage" /><dc:title></dc:title></cc:Work></rdf:RDF></metadata><defs
     id="defs39" /><g
     transform="matrix(0.06313139,0,0,0.06313139,-3.044e-5,1.125695e-6)"
     id="g3"><path
       id="path5"
       d="m 688.8,224.622 0,0 c 0,-1.956 -0.978,-2.844 -1.956,-4.8 0,0 0,-0.978 -0.978,-0.978 -0.978,-0.978 -1.956,-2.844 -2.844,-3.822 l 0,0 -212.177,-211.2 0,0 0,0 0,0 c -0.978,-0.978 -1.956,-1.956 -3.822,-2.844 0,0 -0.978,0 -0.978,-0.978 -0.978,0.978 -1.956,0 -3.822,0 l 0,0 c -0.978,0 -1.956,0 -2.844,0 L 154.044,0 C 126.222,0 103.2,23.022 103.2,50.844 l 0,690.311 c 0,27.822 23.022,50.844 50.844,50.844 l 483.822,0 c 27.822,0 50.844,-23.022 50.844,-50.844 l 0,-512.711 c 0.09,-0.888 0.09,-2.844 0.09,-3.822 z m -60.444,-14.4 -151.645,0 0,-150.666 151.645,150.666 z m 24.888,530.934 c 0,8.622 -6.755,15.378 -15.378,15.378 l -483.822,0 c -8.622,0 -15.378,-6.756 -15.378,-15.378 l 0,-690.312 c 0,-8.622 6.756,-15.378 15.378,-15.378 l 287.022,0 0,192.978 c 0,9.6 7.644,17.244 17.244,17.244 l 193.956,0 0,495.467 0.978,0 z m -81.6,-185.334 c 0,9.6 -7.644,17.245 -17.244,17.245 l -319.644,0 c -9.6,0 -17.244,-7.644 -17.244,-17.245 0,-9.601 7.644,-17.244 17.244,-17.244 l 319.644,0 c 9.6,-0.978 17.244,7.644 17.244,17.244 z m 0,106.578 c 0,9.6 -7.644,17.244 -17.244,17.244 l -319.644,0 c -9.6,0 -17.244,-7.644 -17.244,-17.244 0,-9.6 7.644,-17.244 17.244,-17.244 l 319.644,0 c 9.6,-0.978 17.244,6.666 17.244,17.244 z m 0,-212.178 c 0,9.6 -7.644,17.244 -17.244,17.244 l -319.644,0 c -9.6,0 -17.244,-7.644 -17.244,-17.244 0,-9.6 7.644,-17.244 17.244,-17.244 l 319.644,0 c 9.6,0 17.244,7.644 17.244,17.244 z m -336.888,-122.844 319.644,0 c 9.6,0 17.244,7.644 17.244,17.244 0,9.6 -7.644,17.244 -17.244,17.244 l -319.644,0 c -9.6,0 -17.244,-7.644 -17.244,-17.244 -1.068,-8.622 6.666,-17.244 17.244,-17.244 z m -18.312,-192 c 0,-9.6 7.644,-17.244 17.244,-17.244 l 110.4,0 c 9.6,0 17.244,7.644 17.244,17.244 0,9.6 -7.644,17.244 -17.244,17.244 l -37.422,0 0,74.844 c 0,9.6 -7.644,17.244 -17.244,17.244 -9.6,0 -17.244,-7.644 -17.244,-17.244 l 0,-73.866 -37.422,0 c -10.578,0 -18.312,-8.622 -18.312,-18.222 z" /></g><g
     transform="matrix(0.06313139,0,0,0.06313139,370.99997,-371.0005)"
     id="g7" /><g
     transform="matrix(0.06313139,0,0,0.06313139,370.99997,-371.0005)"
     id="g9" /><g
     transform="matrix(0.06313139,0,0,0.06313139,370.99997,-371.0005)"
     id="g11" /><g
     transform="matrix(0.06313139,0,0,0.06313139,370.99997,-371.0005)"
     id="g13" /><g
     transform="matrix(0.06313139,0,0,0.06313139,370.99997,-371.0005)"
     id="g15" /><g
     transform="matrix(0.06313139,0,0,0.06313139,370.99997,-371.0005)"
     id="g17" /><g
     transform="matrix(0.06313139,0,0,0.06313139,370.99997,-371.0005)"
     id="g19" /><g
     transform="matrix(0.06313139,0,0,0.06313139,370.99997,-371.0005)"
     id="g21" /><g
     transform="matrix(0.06313139,0,0,0.06313139,370.99997,-371.0005)"
     id="g23" /><g
     transform="matrix(0.06313139,0,0,0.06313139,370.99997,-371.0005)"
     id="g25" /><g
     transform="matrix(0.06313139,0,0,0.06313139,370.99997,-371.0005)"
     id="g27" /><g
     transform="matrix(0.06313139,0,0,0.06313139,370.99997,-371.0005)"
     id="g29" /><g
     transform="matrix(0.06313139,0,0,0.06313139,370.99997,-371.0005)"
     id="g31" /><g
     transform="matrix(0.06313139,0,0,0.06313139,370.99997,-371.0005)"
     id="g33" /><g
     transform="matrix(0.06313139,0,0,0.06313139,370.99997,-371.0005)"
     id="g35" /></svg>