<?xml version="1.0" encoding="UTF-8" standalone="no"?>
<svg
   xmlns:dc="http://purl.org/dc/elements/1.1/"
   xmlns:cc="http://creativecommons.org/ns#"
   xmlns:rdf="http://www.w3.org/1999/02/22-rdf-syntax-ns#"
   xmlns:svg="http://www.w3.org/2000/svg"
   xmlns="http://www.w3.org/2000/svg"
   xml:space="preserve"
   style="enable-background:new 0 0 55.867 55.867;"
   viewBox="0 0 55.867 55.867"
   y="0px"
   x="0px"
   id="Capa_1"
   version="1.1"><metadata
     id="metadata39"><rdf:RDF><cc:Work
         rdf:about=""><dc:format>image/svg+xml</dc:format><dc:type
           rdf:resource="http://purl.org/dc/dcmitype/StillImage" /><dc:title></dc:title></cc:Work></rdf:RDF></metadata><defs
     id="defs37" /><path
     id="path4173"
     d="m 11.287,54.548 c -0.207,0 -0.414,-0.064 -0.588,-0.191 -0.308,-0.224 -0.462,-0.603 -0.397,-0.978 L 13.393,35.361 0.302,22.602 C 0.03,22.336 -0.068,21.939 0.049,21.578 0.167,21.216 0.48,20.952 0.857,20.897 l 18.09,-2.629 8.091,-16.393 c 0.168,-0.342 0.516,-0.558 0.896,-0.558 l 0,0 c 0.381,0 0.729,0.216 0.896,0.558 l 8.09,16.393 18.091,2.629 c 0.377,0.055 0.689,0.318 0.808,0.681 0.117,0.361 0.02,0.759 -0.253,1.024 l -13.091,12.761 3.09,18.017 c 0.064,0.375 -0.09,0.754 -0.397,0.978 -0.308,0.226 -0.717,0.255 -1.054,0.076 l -16.18,-8.506 -16.182,8.506 c -0.146,0.076 -0.306,0.114 -0.465,0.114 z" /><path
     style="fill:#ffff00;fill-opacity:1"
     id="path3"
     d="m 3.149,22.584 12.016,11.713 c 0.235,0.229 0.343,0.561 0.287,0.885 L 12.615,51.72 27.469,43.912 c 0.291,-0.154 0.638,-0.154 0.931,0 L 43.252,51.72 40.416,35.182 c -0.056,-0.324 0.052,-0.655 0.287,-0.885 L 52.719,22.584 36.114,20.171 C 35.788,20.124 35.507,19.919 35.361,19.624 L 27.934,4.578 20.507,19.625 c -0.146,0.295 -0.427,0.5 -0.753,0.547 L 3.149,22.584 Z" /><g
     id="g5" /><g
     id="g7" /><g
     id="g9" /><g
     id="g11" /><g
     id="g13" /><g
     id="g15" /><g
     id="g17" /><g
     id="g19" /><g
     id="g21" /><g
     id="g23" /><g
     id="g25" /><g
     id="g27" /><g
     id="g29" /><g
     id="g31" /><g
     id="g33" /></svg>